<svg width="55" height="62" viewBox="0 0 55 62" fill="none" xmlns="http://www.w3.org/2000/svg">
<g id="Bell / filled">
<path id="Notification" d="M47.3561 22.1542C48.3876 22.1542 49.3853 22.0028 50.3292 21.7203C50.3839 22.3893 50.4117 23.0662 50.4117 23.7499V36.4117L54.7455 46.4186C54.9132 46.8059 55 47.2258 55 47.6504C55 49.312 53.7004 50.6587 52.0972 50.6587H2.90356C2.49475 50.6587 2.09058 50.5694 1.71746 50.3962C0.254217 49.7173 -0.400968 47.9376 0.254095 46.4211L4.57749 36.4129L4.57779 23.7089L4.5913 22.9175C5.01624 10.1537 15.1373 0 27.4946 0C31.9047 0 36.0243 1.29107 39.5199 3.52841C37.7462 5.50664 36.6614 8.15747 36.6614 11.0709C36.6614 17.192 41.4496 22.1542 47.3561 22.1542ZM36.534 53.8301C35.8046 58.3208 32.0352 61.742 27.4946 61.742C22.9539 61.742 19.1844 58.3208 18.4552 53.8301H36.534ZM47.3561 18.9875C51.575 18.9875 54.9951 15.4431 54.9951 11.0709C54.9951 6.69866 51.575 3.15427 47.3561 3.15427C43.1372 3.15427 39.717 6.69866 39.717 11.0709C39.717 15.4431 43.1372 18.9875 47.3561 18.9875Z" fill="#F1EEF5"/>
</g>
</svg>
