<svg width="55" height="59" viewBox="0 0 55 59" fill="none" xmlns="http://www.w3.org/2000/svg">
<g id="Home / filled">
<path id="Home" d="M23.067 1.60455C25.6276 -0.534851 29.3724 -0.534851 31.933 1.60455L52.558 18.8364C54.1066 20.1301 55 22.0342 55 24.0404V53.7044C55 56.6291 52.606 59 49.6528 59H40.4861C37.5329 59 35.1389 56.6291 35.1389 53.7044V38.5743C35.1389 37.3209 34.1128 36.3047 32.8472 36.3047H22.1528C20.8871 36.3047 19.8611 37.3209 19.8611 38.5743V53.7044C19.8611 56.6291 17.4671 59 14.5139 59H5.34722C2.39403 59 0 56.6291 0 53.7044V24.0404C0 22.0342 0.893475 20.1301 2.44188 18.8364L23.067 1.60455Z" fill="#F1EEF5"/>
</g>
</svg>
